<svg id="Layer_1" data-name="Layer 1" xmlns="http://www.w3.org/2000/svg" viewBox="0 0 426 111"><defs><style>.cls-1{fill:none;stroke:#000;stroke-miterlimit:10;stroke-width:2px;}</style></defs><title>llp_logo</title><path d="M602.13,388.92v1.54a13.12,13.12,0,0,0-4,.58,2.88,2.88,0,0,0-1.81,1.85,13.94,13.94,0,0,0-.46,4.19V435.2a14,14,0,0,0,.46,4.15,2.66,2.66,0,0,0,1.81,1.81,14,14,0,0,0,4,.42h5.61q4.84,0,7.34-1.38a8,8,0,0,0,3.61-4.54,37.61,37.61,0,0,0,1.65-8.46h1.77q-.23,2.38-.23,6.3,0,1.46.12,4.19t.42,5.65q-3.92-.15-8.84-.19t-8.77,0h-6.11q-3.81,0-8.11,0t-8.07.19v-1.54a15.81,15.81,0,0,0,4-.62,2.77,2.77,0,0,0,1.81-1.85,14,14,0,0,0,.46-4.15V397.07a13.94,13.94,0,0,0-.46-4.19,2.88,2.88,0,0,0-1.81-1.85,13.14,13.14,0,0,0-4-.58v-1.54q1.61.08,4.23.15t5.61.08q2.69,0,5.34-.08T602.13,388.92Z" transform="translate(-574 -372)"/><path d="M641.23,408.44q5.81,0,9.07,3.53t3.27,11h-23.3l-.07-1.25h17a21.72,21.72,0,0,0-.53-6,10.35,10.35,0,0,0-2.08-4.39,4.61,4.61,0,0,0-3.66-1.65,6.73,6.73,0,0,0-5.38,3q-2.34,3-2.81,9.64l.2.26q-.13,1-.2,2.18t-.07,2.38a18.74,18.74,0,0,0,1.45,7.72,11.83,11.83,0,0,0,3.79,4.92,8.21,8.21,0,0,0,4.85,1.68,10.74,10.74,0,0,0,5.48-1.45,11.06,11.06,0,0,0,4.22-5.15l1.32.53a13.62,13.62,0,0,1-2.38,4.22A12.73,12.73,0,0,1,647.3,443a12.55,12.55,0,0,1-5.81,1.29,14.78,14.78,0,0,1-8.15-2.18,14.12,14.12,0,0,1-5.21-6,20.63,20.63,0,0,1-1.81-8.88,24.67,24.67,0,0,1,1.85-10,14.76,14.76,0,0,1,5.21-6.47A13.68,13.68,0,0,1,641.23,408.44Z" transform="translate(-574 -372)"/><path d="M669.74,409.36v1.39a16.19,16.19,0,0,0-2.9.23,2,2,0,0,0-1.65,1.35q-.4,1.12.59,4L672.64,436l-.46-.07,9.7-26.8,1.32.53-12.08,34.06H670l-10.82-29.24q-1.06-2.64-2.08-3.17a4,4,0,0,0-1.75-.53v-1.39q1.32.2,2.74.3t3.07.1q2,0,4.32-.13Zm36.23,0v1.32a4.19,4.19,0,0,0-2.34,1.09,8.18,8.18,0,0,0-1.95,3.53l-9.57,28.38H691l-10.63-27,1.52-7.59h1.52l10.3,27.26-.53.4,6.53-19.87q1.12-3.3.17-4.62t-4.46-1.58v-1.32l2,.1,1.68.07q.82,0,1.81,0,1.52,0,2.74-.07Z" transform="translate(-574 -372)"/><path d="M718,408.64v28.58q0,2.77,1.15,3.76a5.94,5.94,0,0,0,3.86,1v1.39l-3.4-.17q-2.28-.1-4.59-.1t-4.55.1l-3.43.17V442a5.94,5.94,0,0,0,3.86-1q1.15-1,1.16-3.76V416.56a7.38,7.38,0,0,0-1.06-4.39q-1.06-1.42-4-1.42v-1.39q2.11.2,4.09.2a27.85,27.85,0,0,0,3.66-.23A18.58,18.58,0,0,0,718,408.64Zm-3.43-15.77a4.28,4.28,0,1,1-3,1.25A4.06,4.06,0,0,1,714.55,392.86Z" transform="translate(-574 -372)"/><path d="M737.12,408.44a10.62,10.62,0,0,1,4.49.86,12.56,12.56,0,0,1,2.71,1.58q2.18,1.78,2.64-2.38h1.52q-.13,1.85-.2,4.39t-.07,6.83h-1.52a21.29,21.29,0,0,0-1.35-4.75,9.39,9.39,0,0,0-2.8-3.79,7.46,7.46,0,0,0-4.82-1.49,5.84,5.84,0,0,0-3.86,1.29,4.65,4.65,0,0,0-1.55,3.79,5.12,5.12,0,0,0,1.19,3.4,13.35,13.35,0,0,0,3.1,2.64l4.16,2.67a44.34,44.34,0,0,1,6.4,5,8.69,8.69,0,0,1,2.64,6.6,8,8,0,0,1-1.58,5.08,9.92,9.92,0,0,1-4.12,3.1,14.41,14.41,0,0,1-5.58,1.06,15.51,15.51,0,0,1-2.74-.23,13.42,13.42,0,0,1-2.48-.69,12.52,12.52,0,0,1-1.35-.79q-.69-.46-1.35-1a.78.78,0,0,0-1.19,0,4.38,4.38,0,0,0-.79,2.21h-1.52q.13-2.11.2-5.15t.07-8.05h1.52a37.85,37.85,0,0,0,1.32,6.47,8.9,8.9,0,0,0,2.71,4.32A7.77,7.77,0,0,0,738,443a6.73,6.73,0,0,0,3.93-1.39q1.95-1.39,1.95-4.88a6,6,0,0,0-2.11-4.75,43.7,43.7,0,0,0-5.35-3.89q-2.38-1.52-4.46-3a13.79,13.79,0,0,1-3.37-3.43,9.15,9.15,0,0,1,.07-9.47,7.92,7.92,0,0,1,3.6-2.77A12.93,12.93,0,0,1,737.12,408.44Z" transform="translate(-574 -372)"/><path d="M792.59,388.92v1.54a13.12,13.12,0,0,0-4,.58,2.88,2.88,0,0,0-1.81,1.85,13.94,13.94,0,0,0-.46,4.19V435.2a14,14,0,0,0,.46,4.15,2.66,2.66,0,0,0,1.81,1.81,14,14,0,0,0,4,.42h5.61q4.84,0,7.34-1.38a8,8,0,0,0,3.61-4.54,37.61,37.61,0,0,0,1.65-8.46h1.77q-.23,2.38-.23,6.3,0,1.46.12,4.19t.42,5.65q-3.92-.15-8.84-.19t-8.77,0h-6.11q-3.81,0-8.11,0t-8.07.19v-1.54a15.81,15.81,0,0,0,4-.62,2.77,2.77,0,0,0,1.81-1.85,14,14,0,0,0,.46-4.15V397.07a13.94,13.94,0,0,0-.46-4.19,2.88,2.88,0,0,0-1.81-1.85,13.14,13.14,0,0,0-4-.58v-1.54q1.61.08,4.23.15t5.61.08q2.69,0,5.34-.08T792.59,388.92Z" transform="translate(-574 -372)"/><path d="M824.49,443.81q-4.29,0-6.24-2.15a8.17,8.17,0,0,1-1.95-5.71,7.46,7.46,0,0,1,1.35-4.59,10.59,10.59,0,0,1,3.47-3,30.25,30.25,0,0,1,4.46-2q2.34-.82,4.45-1.62A14.51,14.51,0,0,0,833.5,423a3,3,0,0,0,1.35-2.51v-4.09a8.7,8.7,0,0,0-.83-4.22,4.12,4.12,0,0,0-2.21-1.95,9.18,9.18,0,0,0-3.1-.5,14.86,14.86,0,0,0-3.53.46,5.26,5.26,0,0,0-3,1.91,4,4,0,0,1,3.1,4,3.34,3.34,0,0,1-1.06,2.61,3.88,3.88,0,0,1-2.71,1,3.24,3.24,0,0,1-2.81-1.22,4.53,4.53,0,0,1-.89-2.74,4.26,4.26,0,0,1,.86-2.77,10.63,10.63,0,0,1,2.18-2,14.54,14.54,0,0,1,3.93-1.81,18.11,18.11,0,0,1,5.44-.76,15,15,0,0,1,4.62.63,8.29,8.29,0,0,1,3.17,1.81,7.43,7.43,0,0,1,2.24,3.86,24.43,24.43,0,0,1,.53,5.44v18.35a4.62,4.62,0,0,0,.46,2.34,1.7,1.7,0,0,0,1.58.76,3.21,3.21,0,0,0,1.62-.4,7.89,7.89,0,0,0,1.35-1l.73,1.12a21.85,21.85,0,0,1-2.64,1.75,7,7,0,0,1-3.37.69q-3.43,0-4.55-1.78a7.51,7.51,0,0,1-1.12-4.09,11.14,11.14,0,0,1-4.79,4.69A13.59,13.59,0,0,1,824.49,443.81Zm2.9-2.64a7.46,7.46,0,0,0,3.89-1.15,11.15,11.15,0,0,0,3.56-3.86V423.22a6.64,6.64,0,0,1-3.07,2.31q-2.08.86-4.29,1.88a11.68,11.68,0,0,0-3.8,2.77,7.17,7.17,0,0,0-1.58,5,6.06,6.06,0,0,0,1.52,4.52A5.17,5.17,0,0,0,827.4,441.17Z" transform="translate(-574 -372)"/><path d="M869.64,408.44a11.56,11.56,0,0,1,4.19.66,7.62,7.62,0,0,1,2.81,1.85,7.51,7.51,0,0,1,1.78,3.3,21.58,21.58,0,0,1,.53,5.35v17.62q0,2.77,1.15,3.76a5.94,5.94,0,0,0,3.86,1v1.39l-3.43-.17q-2.31-.1-4.49-.1t-4.26.1l-3.13.17V442a4.66,4.66,0,0,0,3.37-1q1-1,1-3.76V418.14a20,20,0,0,0-.33-3.76,4.9,4.9,0,0,0-1.48-2.77,5.1,5.1,0,0,0-3.53-1.06A7.92,7.92,0,0,0,861,414a14.06,14.06,0,0,0-2.54,8.55v14.65q0,2.77,1,3.76a4.66,4.66,0,0,0,3.37,1v1.39l-3.14-.17q-2.08-.1-4.26-.1t-4.49.1l-3.43.17V442a5.94,5.94,0,0,0,3.86-1q1.15-1,1.16-3.76V416.56a7.38,7.38,0,0,0-1.06-4.39q-1.06-1.42-4-1.42v-1.39q2.11.2,4.09.2a27.85,27.85,0,0,0,3.66-.23,18.58,18.58,0,0,0,3.2-.69v7.79a11.54,11.54,0,0,1,4.78-6.24A12.82,12.82,0,0,1,869.64,408.44Z" transform="translate(-574 -372)"/><path d="M902,408.44a11.19,11.19,0,0,1,5.44,1.39,7.07,7.07,0,0,1,3.4,4.75l-.86.66a7.33,7.33,0,0,0-2.87-4A8.29,8.29,0,0,0,902.5,410q-3.9,0-6.5,4t-2.54,12.41a32.45,32.45,0,0,0,1,8.88,10.75,10.75,0,0,0,3,5.28,7.23,7.23,0,0,0,4.92,1.75,6.77,6.77,0,0,0,5-2.38q2.24-2.38,2.71-7l.79.92a12.48,12.48,0,0,1-3.2,7.72,9.7,9.7,0,0,1-7.23,2.71,12.91,12.91,0,0,1-7.16-2,12.36,12.36,0,0,1-4.69-5.94,26.52,26.52,0,0,1-1.62-10,21.51,21.51,0,0,1,2.08-10,14.08,14.08,0,0,1,12.84-8Zm13.86-16.83v44.55a7.2,7.2,0,0,0,1.09,4.39Q918,442,920.85,442v1.39q-2-.2-4.09-.2a32.59,32.59,0,0,0-3.66.2,13.88,13.88,0,0,0-3.2.73V399.53a7.38,7.38,0,0,0-1.06-4.39q-1.06-1.42-4-1.42v-1.39q2.11.2,4.09.2a27.94,27.94,0,0,0,3.66-.23A18.54,18.54,0,0,0,915.84,391.61Z" transform="translate(-574 -372)"/><path d="M939.27,408.44a15.51,15.51,0,0,1,7.59,1.85,13.2,13.2,0,0,1,5.38,5.81,27.26,27.26,0,0,1,0,20.56,13.22,13.22,0,0,1-5.38,5.78,16.45,16.45,0,0,1-15.15,0,13.15,13.15,0,0,1-5.41-5.78,27.25,27.25,0,0,1,0-20.56,13.12,13.12,0,0,1,5.41-5.81A15.57,15.57,0,0,1,939.27,408.44Zm0,1.32q-3.76,0-6.17,3.89t-2.41,12.74q0,8.84,2.41,12.71t6.17,3.86q3.76,0,6.17-3.86t2.41-12.71q0-8.84-2.41-12.74T939.27,409.76Z" transform="translate(-574 -372)"/><path d="M980.38,408.44a11.56,11.56,0,0,1,4.19.66,7.62,7.62,0,0,1,2.81,1.85,7.52,7.52,0,0,1,1.78,3.3,21.59,21.59,0,0,1,.53,5.35v17.62q0,2.77,1.16,3.76a5.94,5.94,0,0,0,3.86,1v1.39l-3.43-.17q-2.31-.1-4.49-.1t-4.26.1l-3.13.17V442a4.66,4.66,0,0,0,3.37-1q1-1,1-3.76V418.14a20,20,0,0,0-.33-3.76,4.9,4.9,0,0,0-1.48-2.77,5.1,5.1,0,0,0-3.53-1.06,7.92,7.92,0,0,0-6.7,3.46,14.06,14.06,0,0,0-2.54,8.55v14.65q0,2.77,1,3.76a4.66,4.66,0,0,0,3.37,1v1.39l-3.13-.17q-2.08-.1-4.26-.1t-4.49.1l-3.43.17V442a5.94,5.94,0,0,0,3.86-1q1.15-1,1.16-3.76V416.56a7.38,7.38,0,0,0-1.06-4.39q-1.06-1.42-4-1.42v-1.39q2.11.2,4.09.2a27.84,27.84,0,0,0,3.66-.23,18.58,18.58,0,0,0,3.2-.69v7.79q1.72-4.49,4.79-6.24A12.82,12.82,0,0,1,980.38,408.44Z" transform="translate(-574 -372)"/><path d="M747.94,469.36V455.52h5.69a3.57,3.57,0,0,1,1.62.37,4.14,4.14,0,0,1,1.28,1,4.71,4.71,0,0,1,.84,1.38,4.22,4.22,0,0,1,.3,1.55,4.71,4.71,0,0,1-.28,1.62,4.43,4.43,0,0,1-.8,1.38,3.91,3.91,0,0,1-1.24,1,3.52,3.52,0,0,1-1.6.36h-4.81v5.22Zm1-6.14h4.77a2.63,2.63,0,0,0,1.23-.28,2.84,2.84,0,0,0,.93-.76,3.53,3.53,0,0,0,.58-1.09,4,4,0,0,0,.2-1.28,3.48,3.48,0,0,0-.24-1.3,3.59,3.59,0,0,0-.66-1.08,3.18,3.18,0,0,0-1-.74,2.64,2.64,0,0,0-1.18-.27h-4.66Z" transform="translate(-574 -372)"/><path d="M777.09,455.52v13.83h-1v-6.62h-8.73v6.63h-1V455.52h1v6.31h8.73v-6.31Z" transform="translate(-574 -372)"/><path d="M792.54,469.45a5.72,5.72,0,0,1-2.63-.6,6.79,6.79,0,0,1-2-1.58,7,7,0,0,1-1.32-2.24,7.42,7.42,0,0,1-.47-2.59,7.18,7.18,0,0,1,.5-2.65,7.4,7.4,0,0,1,1.36-2.24A6.53,6.53,0,0,1,790,456a5.83,5.83,0,0,1,2.57-.58,5.7,5.7,0,0,1,2.64.61,6.63,6.63,0,0,1,2,1.61,7.43,7.43,0,0,1,1.31,2.25,7.33,7.33,0,0,1-1.39,7.44,6.6,6.6,0,0,1-2.06,1.54A5.83,5.83,0,0,1,792.54,469.45Zm-5.48-7a6.67,6.67,0,0,0,.4,2.29,6.18,6.18,0,0,0,1.13,1.95,5.56,5.56,0,0,0,1.74,1.35,4.89,4.89,0,0,0,2.22.51,4.77,4.77,0,0,0,2.25-.53,5.49,5.49,0,0,0,1.71-1.39,6.61,6.61,0,0,0,1.08-6.47,6.34,6.34,0,0,0-1.14-1.95,5.64,5.64,0,0,0-1.72-1.35,4.73,4.73,0,0,0-2.18-.51,4.83,4.83,0,0,0-2.26.53,5.57,5.57,0,0,0-1.73,1.39,6.4,6.4,0,0,0-1.11,2A6.56,6.56,0,0,0,787.06,462.44Z" transform="translate(-574 -372)"/><path d="M817.05,456.42H812v12.94h-1V456.42h-5.07v-.9h11.13Z" transform="translate(-574 -372)"/><path d="M830.4,469.45a5.72,5.72,0,0,1-2.63-.6,6.79,6.79,0,0,1-2-1.58A7,7,0,0,1,824.4,465a7.42,7.42,0,0,1-.47-2.59,7.18,7.18,0,0,1,.5-2.65,7.4,7.4,0,0,1,1.36-2.24,6.53,6.53,0,0,1,2.06-1.55,5.83,5.83,0,0,1,2.57-.58,5.7,5.7,0,0,1,2.64.61,6.63,6.63,0,0,1,2,1.61,7.43,7.43,0,0,1,1.31,2.25,7.33,7.33,0,0,1-1.39,7.44,6.6,6.6,0,0,1-2.06,1.54A5.83,5.83,0,0,1,830.4,469.45Zm-5.48-7a6.67,6.67,0,0,0,.4,2.29,6.18,6.18,0,0,0,1.13,1.95A5.56,5.56,0,0,0,828.2,468a4.89,4.89,0,0,0,2.22.51,4.77,4.77,0,0,0,2.25-.53,5.49,5.49,0,0,0,1.71-1.39,6.61,6.61,0,0,0,1.08-6.47,6.34,6.34,0,0,0-1.14-1.95,5.64,5.64,0,0,0-1.72-1.35,4.73,4.73,0,0,0-2.18-.51,4.83,4.83,0,0,0-2.26.53,5.57,5.57,0,0,0-1.73,1.39,6.4,6.4,0,0,0-1.11,2A6.56,6.56,0,0,0,824.92,462.44Z" transform="translate(-574 -372)"/><path d="M856.08,467.19a6.07,6.07,0,0,1-4.66,2.26,5.7,5.7,0,0,1-2.6-.6,6.62,6.62,0,0,1-2.06-1.6,7.59,7.59,0,0,1-1.34-2.26,7.1,7.1,0,0,1-.49-2.57,7.38,7.38,0,0,1,.48-2.63,7.3,7.3,0,0,1,1.32-2.24,6.37,6.37,0,0,1,2-1.55,5.7,5.7,0,0,1,2.55-.58,7.15,7.15,0,0,1,1.86.22,5.66,5.66,0,0,1,1.48.62,4.75,4.75,0,0,1,1.13,1,5.92,5.92,0,0,1,.81,1.22l-.82.49a4.45,4.45,0,0,0-1.86-2,5.51,5.51,0,0,0-2.62-.61,4.68,4.68,0,0,0-2.22.53,5.48,5.48,0,0,0-1.7,1.38,6.19,6.19,0,0,0-1.07,1.95,6.93,6.93,0,0,0-.37,2.24,6.4,6.4,0,0,0,1.61,4.27A5.72,5.72,0,0,0,849.3,468a4.89,4.89,0,0,0,2.18.5,5.2,5.2,0,0,0,2.41-.58,7.16,7.16,0,0,0,2.19-1.85v-2.67h-3.14v-.8h4v6.72h-.86Z" transform="translate(-574 -372)"/><path d="M866.2,469.36V455.52h5.75a3.57,3.57,0,0,1,1.62.37,4.13,4.13,0,0,1,1.28,1,4.7,4.7,0,0,1,.84,1.38,4.22,4.22,0,0,1,.3,1.55,4.68,4.68,0,0,1-.23,1.47,4.32,4.32,0,0,1-.66,1.28,3.73,3.73,0,0,1-1,.94,3.62,3.62,0,0,1-1.33.49l3.45,5.38H875l-3.35-5.22h-4.48v5.22Zm1-6.14H872a2.52,2.52,0,0,0,1.21-.29,3.06,3.06,0,0,0,.94-.77,3.42,3.42,0,0,0,.59-1.09,4,4,0,0,0,.2-1.26,3.43,3.43,0,0,0-.24-1.28,3.58,3.58,0,0,0-.66-1.08,3.32,3.32,0,0,0-1-.75,2.61,2.61,0,0,0-1.2-.28h-4.72Z" transform="translate(-574 -372)"/><path d="M889.31,455.52h.86L896,469.36H895L893,464.8h-6.61l-1.93,4.56h-1.07Zm3.45,8.46-3-7.25L886.66,464Z" transform="translate(-574 -372)"/><path d="M904.45,469.36V455.52h5.69a3.57,3.57,0,0,1,1.62.37,4.14,4.14,0,0,1,1.28,1,4.71,4.71,0,0,1,.84,1.38,4.22,4.22,0,0,1,.3,1.55,4.71,4.71,0,0,1-.28,1.62,4.43,4.43,0,0,1-.8,1.38,3.91,3.91,0,0,1-1.24,1,3.52,3.52,0,0,1-1.6.36h-4.81v5.22Zm1-6.14h4.77a2.63,2.63,0,0,0,1.23-.28,2.84,2.84,0,0,0,.93-.76,3.53,3.53,0,0,0,.58-1.09,4,4,0,0,0,.2-1.28,3.48,3.48,0,0,0-.24-1.3,3.59,3.59,0,0,0-.66-1.08,3.18,3.18,0,0,0-1-.74,2.64,2.64,0,0,0-1.18-.27h-4.66Z" transform="translate(-574 -372)"/><path d="M933.6,455.52v13.83h-1v-6.62h-8.73v6.63h-1V455.52h1v6.31h8.73v-6.31Z" transform="translate(-574 -372)"/><path d="M943.18,455.52l4.83,7.66,4.85-7.66H954l-5.46,8.61v5.22h-1v-5.26l-5.44-8.57Z" transform="translate(-574 -372)"/><line class="cls-1" y1="1" x2="426" y2="1"/><line class="cls-1" y1="110" x2="426" y2="110"/></svg>