<svg id="Layer_1" data-name="Layer 1" xmlns="http://www.w3.org/2000/svg" width="1304" height="714.65" viewBox="0 0 1304 714.65"><defs><style>.cls-1{font-size:76.89px;letter-spacing:-0.02em;}.cls-1,.cls-10,.cls-12,.cls-13,.cls-14{font-family:PlayfairDisplay-Regular, Playfair Display;}.cls-2,.cls-3{font-size:66px;}.cls-2{letter-spacing:-0.02em;}.cls-3{letter-spacing:-0.02em;}.cls-4{letter-spacing:-0.02em;}.cls-5{font-size:19.49px;font-family:Raleway-Light, Raleway;letter-spacing:0.33em;}.cls-6{letter-spacing:0.29em;}.cls-7{letter-spacing:0.31em;}.cls-8{letter-spacing:0.29em;}.cls-17,.cls-18,.cls-19,.cls-9{fill:none;stroke:#000;stroke-miterlimit:10;}.cls-9{stroke-width:2px;}.cls-10{font-size:92.01px;}.cls-10,.cls-12,.cls-13,.cls-14,.cls-16{fill:#fff;}.cls-11{letter-spacing:-0.02em;}.cls-12{font-size:203.76px;}.cls-13{font-size:124.84px;}.cls-14{font-size:72.17px;letter-spacing:-0.02em;}.cls-15{fill:#29abe2;}.cls-17{stroke-width:15px;}.cls-18{stroke-width:33px;}.cls-19{stroke-width:55px;}</style></defs><title>logo1</title><text class="cls-1" transform="translate(5.29 322)">L<tspan class="cls-2" x="43.98" y="0">e</tspan><tspan class="cls-3" x="76.06" y="0">wis</tspan><tspan class="cls-4" x="172.55" y="0" xml:space="preserve"> L</tspan><tspan class="cls-3" x="234.44" y="0">andon</tspan></text><text class="cls-5" transform="translate(172.12 348)">PH<tspan class="cls-6" x="39.09" y="0">OT</tspan><tspan x="76.95" y="0">OG</tspan><tspan class="cls-7" x="118.26" y="0">R</tspan><tspan x="137.02" y="0">APH</tspan><tspan class="cls-8" x="195.6" y="0">Y</tspan></text><line class="cls-9" y1="251.65" x2="426" y2="251.65"/><line class="cls-9" y1="360.65" x2="426" y2="360.65"/><rect x="44" y="10.65" width="177" height="177"/><text class="cls-10" transform="translate(51.44 132.29)">LL<tspan class="cls-11" x="108.2" y="0">P</tspan></text><rect x="249" y="13.65" width="177" height="177"/><text class="cls-12" transform="translate(252.44 174.01) scale(1.36 1)">L</text><text class="cls-13" transform="translate(313.66 150.01) scale(1.04 1)">L</text><text class="cls-14" transform="translate(349.67 130.29) scale(1.04 1)">P</text><path class="cls-15" d="M1184,440.16A155.08,155.08,0,0,1,981.07,586.43l-20.93,80.31c7.67,3.85,115.16,55.32,211.86-17.94,87.9-66.59,93.86-180.93,94.34-194.18Z" transform="translate(-62 -61.35)"/><path class="cls-15" d="M1029,300a138.35,138.35,0,0,1,78.86,24.54L1150,233c-7.68-4.51-115.61-65.4-229-8.54-103.12,51.69-125.12,157.73-127.45,170L891.16,421A139,139,0,0,1,1029,300Z" transform="translate(-62 -61.35)"/><circle class="cls-16" cx="966.5" cy="377.15" r="11.5"/><circle class="cls-17" cx="966.5" cy="377.15" r="70.5"/><circle class="cls-17" cx="969" cy="377.65" r="192.5"/><circle class="cls-18" cx="969" cy="377.65" r="250.5"/><circle class="cls-19" cx="967" cy="377.65" r="309.5"/></svg>